<svg width="145" height="26" viewBox="0 0 145 26" fill="none" xmlns="http://www.w3.org/2000/svg">
<g clip-path="url(#clip0_13092_61990)">
<path d="M27.9092 5.97461H29.3964V17.946C29.3964 18.3064 29.4712 18.5527 29.6209 18.6827C29.8511 18.8363 30.1324 18.906 30.4128 18.8788C30.4635 18.8788 30.5359 18.8788 30.6301 18.8788C30.7242 18.8788 30.8305 18.8651 30.9295 18.8537L31.1467 19.6702C31.0341 19.7189 30.9085 19.7668 30.7701 19.8139C30.6287 19.8628 30.4844 19.9039 30.338 19.9371C30.1899 19.9798 30.0379 20.0095 29.8841 20.026C29.7446 20.0499 29.6033 20.0621 29.4616 20.0625C29.2461 20.0721 29.0312 20.0361 28.8324 19.9572C28.6336 19.8783 28.4559 19.7584 28.3124 19.6064C28.042 19.3099 27.9092 18.8674 27.9092 18.2813V5.97461Z" fill="#005E4E"/>
<path d="M32.861 10.3066H34.3482V19.9129H32.861V10.3066ZM32.7089 7.19344C32.7096 6.97652 32.7956 6.76759 32.9504 6.6073C33.0303 6.51946 33.1303 6.44983 33.2428 6.40363C33.3552 6.35742 33.4773 6.33582 33.5998 6.34046C33.7209 6.33617 33.8414 6.35869 33.9516 6.40621C34.0619 6.45372 34.1588 6.52493 34.2348 6.61414C34.3897 6.77431 34.4758 6.98332 34.4762 7.20028C34.4792 7.31413 34.4574 7.42734 34.4122 7.53289C34.3669 7.63843 34.2991 7.73405 34.213 7.81379C34.1333 7.89035 34.0382 7.95115 33.9334 7.99265C33.8285 8.03416 33.7159 8.05554 33.6022 8.05555C33.3668 8.05611 33.1405 7.9693 32.9721 7.81379C32.8853 7.73318 32.817 7.63643 32.7717 7.52966C32.7264 7.42289 32.7051 7.30841 32.7089 7.19344Z" fill="#005E4E"/>
<path d="M37.4214 11.5429C37.4192 11.1297 37.3909 10.7169 37.3369 10.3068H38.7855C38.8446 10.5881 38.8817 10.8732 38.8965 11.1598C39.3918 10.8663 39.9228 10.6304 40.4779 10.4573C41.0807 10.2606 41.7136 10.1589 42.3514 10.1562C43.3171 10.1563 44.0768 10.4201 44.6305 10.9477C45.1841 11.4753 45.4666 12.2248 45.4779 13.1964V19.9131H43.9883V13.3127C44.0082 12.7968 43.8375 12.2905 43.5054 11.8805C43.3448 11.6892 43.138 11.537 42.9024 11.4366C42.6667 11.3362 42.4091 11.2906 42.151 11.3034C41.5632 11.3036 40.9789 11.3874 40.4175 11.552C39.887 11.7004 39.3803 11.916 38.911 12.1929V19.9131H37.4214V11.5429Z" fill="#005E4E"/>
<path d="M52.4237 18.8606C52.9237 18.8724 53.4234 18.8249 53.9109 18.7192C54.3901 18.5712 54.8321 18.3321 55.2098 18.0167V11.7379C54.4577 11.4954 53.6675 11.3751 52.8728 11.3822C51.6946 11.3822 50.8423 11.7653 50.3233 12.5225C49.8042 13.2924 49.5356 14.1893 49.5507 15.102C49.5234 16.0383 49.7924 16.961 50.3233 17.7522C50.5402 18.0943 50.8484 18.3766 51.2169 18.5711C51.5855 18.7656 52.0016 18.8654 52.4237 18.8606ZM52.6024 10.1551C53.4966 10.1587 54.3817 10.3244 55.2098 10.6432V5.97461H56.697V16.8764C56.6843 17.4773 56.7223 18.0783 56.8105 18.6736C56.8903 19.0915 56.9976 19.5043 57.1316 19.9097H55.7385C55.6511 19.7981 55.5751 19.679 55.5116 19.5539C55.4414 19.4068 55.3849 19.2541 55.3426 19.0978C54.9065 19.3684 54.4431 19.5976 53.9592 19.782C53.3909 19.9693 52.7911 20.0566 52.1895 20.0397C51.601 20.0571 51.0165 19.9421 50.4842 19.7041C49.952 19.4662 49.4872 19.1122 49.1282 18.6713C48.3621 17.759 47.979 16.5943 47.979 15.1772C47.979 13.7602 48.4031 12.5658 49.2513 11.5943C49.6554 11.1274 50.1679 10.7548 50.7491 10.5052C51.3302 10.2557 51.9643 10.1359 52.6024 10.1551Z" fill="#005E4E"/>
<path d="M61.1706 10.3066V16.8249C61.1706 17.4726 61.3396 17.9652 61.6776 18.3028C61.8523 18.4713 62.0625 18.6034 62.2945 18.6906C62.5265 18.7778 62.7753 18.8182 63.0248 18.8091C63.6678 18.8204 64.3081 18.727 64.9176 18.5331C65.405 18.3764 65.8511 18.1228 66.2261 17.7896V10.3066H67.7133V18.6586C67.7167 19.0797 67.7611 19.4996 67.8461 19.913H66.33C66.2793 19.5731 66.2406 19.2424 66.2165 18.9163C65.8352 19.1821 65.4209 19.4027 64.9828 19.5731C64.5891 19.7408 64.1792 19.8722 63.7587 19.9654C63.4564 20.033 63.1471 20.069 62.8365 20.0726C61.7452 20.0726 60.9453 19.7906 60.4367 19.2265C59.9117 18.5944 59.6444 17.8053 59.6834 17.0028V10.3066H61.1706Z" fill="#005E4E"/>
<path d="M70.9414 11.5429C70.9404 11.1296 70.9122 10.7168 70.8569 10.3068H72.3055C72.3643 10.5883 72.4022 10.8733 72.419 11.1598C72.914 10.8659 73.445 10.63 74.0003 10.4573C74.6031 10.2606 75.2361 10.1589 75.8738 10.1562C76.8395 10.1562 77.5992 10.4201 78.1529 10.9477C78.7066 11.4753 78.9891 12.2248 79.0003 13.1964V19.9131H77.4986V13.3127C77.5174 12.797 77.3468 12.291 77.0158 11.8805C76.8546 11.6891 76.6474 11.537 76.4114 11.4366C76.1754 11.3362 75.9174 11.2906 75.659 11.3034C75.072 11.3035 74.4884 11.3873 73.9279 11.552C73.3997 11.7006 72.8954 11.9162 72.4286 12.1929V19.9131H70.939L70.9414 11.5429Z" fill="#005E4E"/>
<path d="M85.7987 15.8821C86.1377 15.8916 86.4747 15.8308 86.7862 15.7042C87.0551 15.5856 87.2884 15.4053 87.4646 15.1797C87.649 14.9369 87.7773 14.6603 87.8412 14.3677C87.9268 14.024 87.9682 13.6717 87.9644 13.3186C87.9658 13.0348 87.921 12.7525 87.8316 12.4816C87.7503 12.2208 87.613 11.9786 87.4284 11.77C87.2438 11.5637 87.0118 11.3998 86.75 11.2911C86.4422 11.16 86.1072 11.0961 85.7698 11.1041C85.3775 11.091 84.9873 11.1644 84.6302 11.3184C84.347 11.442 84.0988 11.6273 83.9059 11.859C83.723 12.0867 83.5916 12.3476 83.5197 12.6253C83.4448 12.9072 83.4067 13.1967 83.4062 13.4874C83.4065 13.7829 83.4545 14.0767 83.5486 14.3586C83.6462 14.637 83.7958 14.8965 83.9904 15.1249C84.1987 15.3549 84.4541 15.5426 84.7413 15.6769C85.0731 15.8191 85.4344 15.8893 85.7987 15.8821ZM83.6042 19.5312C83.3438 19.7922 83.1221 20.0853 82.9451 20.4025C82.8029 20.6647 82.7261 20.9541 82.7205 21.2486C82.7071 21.561 82.791 21.8703 82.962 22.1381C83.1209 22.3699 83.3371 22.5617 83.5921 22.6969C83.8618 22.8377 84.1549 22.9341 84.4588 22.9819C84.7777 23.0348 85.1008 23.0615 85.4245 23.0618C85.6351 23.0602 85.8454 23.0481 86.0547 23.0253C86.3139 23.0072 86.5718 22.9752 86.8272 22.9295C87.0957 22.8816 87.3603 22.8161 87.6191 22.7333C87.8658 22.6625 88.1025 22.5637 88.3241 22.4391C88.52 22.331 88.6901 22.1858 88.8238 22.0126C88.9553 21.8523 89.0251 21.6544 89.0218 21.4516C89.0232 21.2482 88.9498 21.0507 88.8142 20.8928C88.6659 20.7191 88.484 20.5736 88.2782 20.4641C88.0268 20.3268 87.7616 20.2138 87.4863 20.1265C86.9777 19.9781 86.4591 19.8623 85.9339 19.7798C85.4511 19.7091 85.06 19.6612 84.7847 19.6384C84.5095 19.6156 84.2753 19.5883 84.0605 19.5746C83.8456 19.5609 83.7056 19.5312 83.6042 19.5198V19.5312ZM90.2797 11.4712C90.0473 11.4635 89.8146 11.4749 89.5843 11.5055C89.3702 11.5354 89.1588 11.5803 88.9518 11.64C89.1171 11.8813 89.2501 12.141 89.3477 12.4132C89.4674 12.7362 89.5247 13.0768 89.5167 13.419C89.5301 13.939 89.4212 14.4555 89.1981 14.9311C88.9966 15.3356 88.7041 15.6936 88.341 15.9802C87.9749 16.2571 87.5561 16.4653 87.1073 16.5937C86.637 16.7249 86.1491 16.791 85.6587 16.7898C85.2118 16.7907 84.7663 16.7433 84.3308 16.6484C84.1989 16.6673 84.0694 16.6994 83.9446 16.7442C83.7834 16.8004 83.6288 16.8722 83.4834 16.9586C83.3424 17.0448 83.2155 17.1501 83.1068 17.2711C83.0047 17.371 82.9469 17.504 82.9451 17.6428C82.9451 17.7979 83.0561 17.9188 83.2758 18.0077C83.5556 18.1118 83.8461 18.1882 84.1425 18.2358C84.4998 18.2951 85.1332 18.384 86.0426 18.5026C86.7567 18.6013 87.4643 18.7376 88.1623 18.9109C88.5914 19.0154 89.0032 19.175 89.3864 19.3853C89.7257 19.5713 90.0201 19.8222 90.2507 20.1219C90.4787 20.443 90.5944 20.8234 90.5814 21.2098C90.592 21.5758 90.5092 21.9388 90.34 22.2681C90.1789 22.5607 89.9543 22.8179 89.6809 23.023C89.399 23.2429 89.081 23.4178 88.7393 23.5407C88.3731 23.6775 87.9951 23.7843 87.6095 23.86C87.2115 23.9379 86.808 23.9882 86.4023 24.0105C85.9991 24.0402 85.6177 24.0562 85.2531 24.0562C84.7189 24.0601 84.1858 24.012 83.6621 23.9125C83.2263 23.8342 82.8086 23.6836 82.4284 23.4677C82.0954 23.2849 81.8171 23.0252 81.6196 22.7128C81.4176 22.3835 81.3164 22.0077 81.3275 21.6272C81.3277 21.3944 81.3684 21.1633 81.4482 20.943C81.5387 20.7204 81.6562 20.5084 81.7983 20.3112C81.9486 20.1098 82.1183 19.922 82.3053 19.7502C82.4964 19.5828 82.7014 19.4303 82.9185 19.2941C82.7495 19.2165 82.5829 19.1367 82.4187 19.0523C82.2623 18.9681 82.1144 18.8703 81.9769 18.7604C81.8531 18.6483 81.7481 18.5191 81.6655 18.3772C81.5808 18.2174 81.5385 18.0405 81.5424 17.8618C81.5419 17.6509 81.6111 17.4452 81.7403 17.2733C81.8817 17.0918 82.05 16.9305 82.2401 16.7944C82.4352 16.6537 82.6466 16.5343 82.8702 16.4386C83.0582 16.354 83.2537 16.2853 83.4545 16.2333C82.9607 15.9788 82.548 15.6039 82.2594 15.1477C81.9695 14.639 81.8263 14.0672 81.8441 13.4897C81.8342 12.9936 81.9501 12.5025 82.1821 12.0574C82.4026 11.6515 82.7111 11.294 83.0875 11.0083C83.4663 10.7261 83.8968 10.512 84.3574 10.3765C84.8283 10.2272 85.3214 10.1502 85.818 10.1484C86.2571 10.1486 86.6941 10.2054 87.1169 10.3172C87.5438 10.4282 87.9506 10.5989 88.3241 10.8235C88.7837 10.6543 89.2601 10.529 89.7461 10.4495C90.1818 10.3813 90.6226 10.3463 91.0643 10.3446L90.8929 11.4849L90.2797 11.4712Z" fill="#005E4E"/>
<path d="M92.6628 10.3066H94.1572V19.9129H92.67L92.6628 10.3066ZM92.5107 7.19344C92.5113 6.97652 92.5974 6.76759 92.7521 6.6073C92.8321 6.51946 92.932 6.44983 93.0445 6.40363C93.157 6.35742 93.279 6.33582 93.4016 6.34046C93.5227 6.33617 93.6431 6.35869 93.7534 6.40621C93.8636 6.45372 93.9606 6.52493 94.0365 6.61414C94.1915 6.77431 94.2776 6.98332 94.278 7.20028C94.281 7.31413 94.2592 7.42734 94.2139 7.53289C94.1686 7.63843 94.1009 7.73405 94.0148 7.81379C93.9352 7.89055 93.8402 7.95149 93.7353 7.99301C93.6304 8.03453 93.5177 8.05579 93.404 8.05555C93.1685 8.05611 92.9422 7.9693 92.7739 7.81379C92.687 7.73318 92.6188 7.63643 92.5735 7.52966C92.5282 7.42289 92.5068 7.30841 92.5107 7.19344Z" fill="#005E4E"/>
<path d="M97.1436 5.97461H98.6308V11.0446C99.0593 10.8152 99.5066 10.6184 99.9683 10.4562C100.574 10.2475 101.216 10.1454 101.861 10.1551C102.928 10.1551 103.744 10.4455 104.309 11.0264C104.874 11.6072 105.159 12.3925 105.164 13.3823V19.912H103.677V13.4622C103.715 12.8854 103.524 12.316 103.141 11.8657C102.783 11.4871 102.223 11.2978 101.465 11.2978C100.965 11.3008 100.469 11.3777 99.9948 11.5258C99.5241 11.6758 99.0677 11.8635 98.6308 12.0869V19.912H97.1436V5.97461Z" fill="#005E4E"/>
<path d="M109.367 10.3066V16.8249C109.367 17.4726 109.536 17.9652 109.874 18.3028C110.049 18.4713 110.259 18.6034 110.491 18.6906C110.723 18.7778 110.972 18.8182 111.221 18.8091C111.864 18.8204 112.505 18.727 113.114 18.5331C113.597 18.3749 114.039 18.1215 114.411 17.7896V10.3066H115.898V18.6586C115.901 19.0797 115.946 19.4996 116.031 19.913H114.515C114.464 19.5731 114.425 19.2424 114.401 18.9163C114.019 19.1815 113.605 19.4021 113.167 19.5731C112.774 19.7408 112.364 19.8722 111.943 19.9654C111.641 20.033 111.332 20.069 111.021 20.0726C109.93 20.0726 109.13 19.7906 108.621 19.2265C108.096 18.5944 107.829 17.8053 107.868 17.0028V10.3066H109.367Z" fill="#005E4E"/>
<path d="M117.846 10.3059H119.314V7.87695H120.804V10.3059H123.278L123.129 11.5238H120.813V17.075C120.792 17.5318 120.889 17.9866 121.096 18.4001C121.18 18.5561 121.31 18.6859 121.47 18.7741C121.63 18.8622 121.814 18.905 121.999 18.8973C122.277 18.8912 122.554 18.8615 122.827 18.8084C123.16 18.7422 123.38 18.6966 123.486 18.667L123.599 19.8848C123.474 19.9077 123.206 19.9441 122.798 19.992C122.484 20.0379 122.167 20.0646 121.849 20.0719C121.05 20.0719 120.429 19.8848 119.983 19.5108C119.536 19.1368 119.324 18.4457 119.324 17.4377V11.5238H117.856L117.846 10.3059Z" fill="#005E4E"/>
<path d="M131.535 14.8779C130.795 14.8861 130.058 14.9625 129.333 15.106C128.802 15.2018 128.291 15.3758 127.817 15.6215C127.461 15.8054 127.159 16.0714 126.941 16.3946C126.753 16.6899 126.655 17.0285 126.658 17.373C126.642 17.5768 126.673 17.7816 126.752 17.9722C126.83 18.1628 126.952 18.3345 127.11 18.4746C127.47 18.7294 127.914 18.8555 128.363 18.8304C128.651 18.8305 128.938 18.8007 129.22 18.7415C129.506 18.6831 129.786 18.6022 130.057 18.4997C130.324 18.4005 130.583 18.2816 130.83 18.1439C131.074 18.0052 131.31 17.8529 131.535 17.6878V14.8779ZM125.613 11.5002C125.86 11.2875 126.132 11.1023 126.424 10.9483C126.74 10.781 127.07 10.6383 127.411 10.5218C127.764 10.4061 128.127 10.3199 128.495 10.2641C128.865 10.1989 129.24 10.1661 129.616 10.166C130.655 10.166 131.483 10.4116 132.1 10.9027C132.408 11.1563 132.652 11.4729 132.812 11.8285C132.971 12.1842 133.043 12.5695 133.022 12.9553V17.2271C133.019 17.5149 133.032 17.8027 133.061 18.0892C133.074 18.2725 133.118 18.4526 133.191 18.6229C133.246 18.7393 133.339 18.836 133.457 18.8988C133.591 18.9503 133.735 18.9743 133.879 18.9695C134.097 18.969 134.315 18.9484 134.529 18.9079L134.77 19.5579C134.561 19.7315 134.314 19.8585 134.046 19.9297C133.724 20.0277 133.387 20.0762 133.049 20.0734C132.867 20.08 132.686 20.0483 132.519 19.9804C132.352 19.9125 132.203 19.8103 132.083 19.6811C131.817 19.3503 131.657 18.9546 131.622 18.5408C131.104 18.9984 130.514 19.3763 129.872 19.6606C129.236 19.9357 128.545 20.0759 127.846 20.0711C127.469 20.0728 127.095 20.0189 126.735 19.9115C126.411 19.8053 126.111 19.642 125.852 19.4302C125.598 19.2188 125.395 18.9582 125.258 18.6662C125.115 18.3388 125.044 17.9872 125.05 17.633C125.038 17.1681 125.145 16.7073 125.362 16.2897C125.569 15.9168 125.854 15.5871 126.199 15.3204C126.557 15.0479 126.957 14.8294 127.385 14.6727C127.838 14.5065 128.305 14.3754 128.78 14.2804C129.258 14.1868 129.742 14.1244 130.229 14.0934C130.712 14.0592 131.146 14.0409 131.547 14.0409V13.0557C131.547 12.4262 131.375 11.9701 131.03 11.6872C130.619 11.3834 130.104 11.2318 129.582 11.2608C129.249 11.2585 128.917 11.2976 128.594 11.3771C128.303 11.4509 128.02 11.5494 127.747 11.6713C127.495 11.7832 127.253 11.9136 127.023 12.0613C126.803 12.205 126.607 12.3395 126.431 12.4718L125.613 11.5002Z" fill="#005E4E"/>
<path d="M136.714 11.5429C136.712 11.1297 136.683 10.7169 136.629 10.3068H138.078C138.138 10.5881 138.176 10.8732 138.191 11.1598C138.687 10.8663 139.218 10.6304 139.773 10.4573C140.376 10.2606 141.009 10.1589 141.646 10.1562C142.612 10.1562 143.372 10.4201 143.925 10.9477C144.479 11.4753 144.762 12.2248 144.773 13.1964V19.9131H143.286V13.3127C143.306 12.7968 143.135 12.2905 142.803 11.8805C142.642 11.6891 142.434 11.537 142.198 11.4366C141.962 11.3362 141.704 11.2906 141.446 11.3034C140.859 11.3036 140.275 11.3874 139.715 11.552C139.184 11.7 138.677 11.9156 138.208 12.1929V19.9131H136.721L136.714 11.5429Z" fill="#005E4E"/>
<path fill-rule="evenodd" clip-rule="evenodd" d="M10.1159 9.46068H11.241V10.0582L12.931 8.30664L13.4139 8.65559L11.2676 10.9705C11.1742 12.0634 11.2009 13.1625 11.3472 14.2501C11.5669 15.6186 11.2169 18.2414 12.8851 18.4307C11.6901 18.8868 11.9894 20.871 10.5312 18.7477C11.7383 17.8765 11.7794 16.7726 7.87549 17.5526C9.03435 16.5468 9.65723 15.7759 10.0483 12.4826L8.61667 11.5201L8.93295 11.0868L10.1618 11.7938L10.1159 9.46068Z" fill="#005E4E"/>
<path fill-rule="evenodd" clip-rule="evenodd" d="M11.3762 14.2918C11.7528 15.7012 12.395 18.1986 14.2033 18.4153C13.0179 18.8714 10.9537 21.6356 9.49548 19.51C10.7026 18.6388 11.3062 17.154 7.39746 17.9135C8.43319 17.0286 9.4158 16.0183 9.89866 13.457L10.6881 15.1995L11.3762 14.2918Z" fill="#005E4E"/>
<path fill-rule="evenodd" clip-rule="evenodd" d="M15.5457 18.6872C15.4491 18.4728 15.0628 17.8411 11.6997 20.4479C11.6997 20.4479 10.1691 21.0204 8.87982 20.879C8.87982 20.879 7.77167 20.1491 6.96288 20.2404C6.15409 20.3316 10.8982 19.2027 10.0821 18.1307C9.43994 17.2937 5.33807 18.7465 3.92329 19.3258C3.467 19.5083 1.35932 21.8574 1.02615 22.049C0.692981 22.2406 0.0942383 22.5302 0.0942383 22.5302C1.55752 23.2209 2.67447 24.4276 3.20384 25.8897C3.20384 25.8897 3.49355 25.5498 3.11692 24.5463C2.74029 23.5428 5.93681 22.9042 7.50851 23.0365C9.31213 23.217 11.1198 22.7325 12.5544 21.6841C14.3434 20.4297 15.6688 18.8788 15.5457 18.6872Z" fill="#005E4E"/>
<path d="M14.1089 6.54722C14.3875 6.55039 14.6608 6.47524 14.8941 6.33132C15.1274 6.18741 15.3101 5.98122 15.4191 5.73897C15.528 5.49672 15.5583 5.22935 15.506 4.97082C15.4537 4.71229 15.3212 4.47429 15.1254 4.28705C14.9296 4.09982 14.6793 3.9718 14.4062 3.91928C14.1332 3.86675 13.8498 3.89209 13.5921 3.99207C13.3344 4.09205 13.1139 4.26216 12.9588 4.48077C12.8036 4.69939 12.7207 4.95665 12.7207 5.21985C12.7188 5.56969 12.8639 5.90595 13.1242 6.15481C13.3844 6.40368 13.7386 6.54481 14.1089 6.54722Z" fill="#005E4E"/>
<path fill-rule="evenodd" clip-rule="evenodd" d="M16.9797 5.97461C17.7917 5.99595 18.5628 6.31565 19.1291 6.86571C19.6954 7.41578 20.0122 8.15283 20.0122 8.92014C20.0122 9.68745 19.6954 10.4245 19.1291 10.9746C18.5628 11.5246 17.7917 11.8443 16.9797 11.8657C16.3642 11.8696 15.7627 11.6927 15.2583 11.3593C15.3749 11.144 15.4353 10.9056 15.4346 10.6637C15.4386 10.2735 15.2811 9.89721 14.9956 9.61515C14.7101 9.33309 14.3192 9.16757 13.9063 9.15391C13.9063 9.07864 13.9063 8.99426 13.9063 8.92584C13.8999 8.14956 14.22 7.40263 14.7963 6.84923C15.3727 6.29582 16.158 5.98124 16.9797 5.97461Z" fill="#005E4E"/>
<path d="M13.8458 11.9912C14.125 11.9948 14.3991 11.9199 14.6332 11.7759C14.8672 11.6319 15.0506 11.4254 15.1601 11.1826C15.2695 10.9399 15.3 10.6719 15.2477 10.4127C15.1954 10.1535 15.0626 9.91488 14.8663 9.72718C14.67 9.53949 14.4191 9.41121 14.1454 9.35866C13.8717 9.30612 13.5876 9.33169 13.3293 9.43212C13.071 9.53255 12.8502 9.7033 12.695 9.92264C12.5397 10.142 12.4571 10.4 12.4575 10.6638C12.4556 11.0137 12.6007 11.3499 12.861 11.5988C13.1213 11.8477 13.4754 11.9888 13.8458 11.9912Z" fill="#005E4E"/>
<path fill-rule="evenodd" clip-rule="evenodd" d="M6.03594 3.2207C6.29892 3.22346 6.56096 3.25097 6.81817 3.30281C6.91199 3.83607 7.16781 4.33208 7.55453 4.73053C7.18882 5.20577 6.99188 5.77825 6.992 6.36579C6.98851 6.65864 7.03665 6.94999 7.13444 7.2279H6.97751C6.33162 7.23512 5.71503 7.48367 5.2626 7.91918C4.81017 8.3547 4.55871 8.94175 4.56323 9.55193V9.69334C3.94408 9.4187 3.42036 8.98341 3.05316 8.43825C2.68597 7.8931 2.49043 7.26055 2.48936 6.61439C2.48586 6.17144 2.57487 5.73219 2.7513 5.32179C2.92773 4.91138 3.18811 4.53787 3.51754 4.22265C3.84696 3.90742 4.23897 3.65667 4.67111 3.48474C5.10325 3.31282 5.56705 3.22309 6.03594 3.2207Z" fill="#005E4E"/>
<path fill-rule="evenodd" clip-rule="evenodd" d="M9.75131 0.109375C10.2873 0.114377 10.8109 0.262366 11.2617 0.536281C11.7125 0.810196 12.0722 1.19889 12.2993 1.65754C12.5264 2.1162 12.6117 2.62615 12.5454 3.12861C12.479 3.63107 12.2636 4.10558 11.9242 4.49745C11.6514 4.21814 11.3188 3.99689 10.9485 3.8484C10.5783 3.6999 10.1787 3.62756 9.77658 3.63619C9.37442 3.64482 8.97881 3.73422 8.61604 3.89844C8.25328 4.06267 7.93168 4.29796 7.67261 4.58867C7.20485 4.09629 6.94681 3.45763 6.94833 2.79604C6.94546 2.44573 7.01571 2.09831 7.15506 1.77366C7.2944 1.449 7.50011 1.15347 7.76042 0.903959C8.02074 0.654447 8.33055 0.455845 8.67216 0.319506C9.01377 0.183166 9.38047 0.111762 9.75131 0.109375Z" fill="#005E4E"/>
<path fill-rule="evenodd" clip-rule="evenodd" d="M9.83334 3.81836C10.5498 3.81836 11.237 4.08724 11.7436 4.56585C12.2503 5.04447 12.5349 5.6936 12.5349 6.37046C12.5349 7.04733 12.2503 7.69646 11.7436 8.17508C11.237 8.65369 10.5498 8.92257 9.83334 8.92257C9.65419 8.92215 9.4755 8.90534 9.29978 8.8724C9.1659 8.45475 8.91002 8.08125 8.56153 7.79481C8.21305 7.50837 7.7861 7.32061 7.32973 7.2531C7.22053 6.96863 7.16417 6.66849 7.16314 6.3659C7.16091 6.03288 7.22827 5.70271 7.36134 5.39431C7.49442 5.08592 7.6906 4.80536 7.93864 4.56871C8.18669 4.33205 8.48173 4.14396 8.80685 4.0152C9.13198 3.88644 9.4808 3.81955 9.83334 3.81836Z" fill="#005E4E"/>
<path d="M6.98477 11.693C7.43462 11.6998 7.87643 11.58 8.25397 11.3489C8.63151 11.1177 8.92771 10.7857 9.10486 10.395C9.28201 10.0043 9.3321 9.57268 9.24876 9.15503C9.16542 8.73737 8.95242 8.35259 8.63686 8.04965C8.3213 7.74672 7.91746 7.53933 7.47675 7.45388C7.03603 7.36844 6.57836 7.4088 6.16201 7.56984C5.74565 7.73088 5.38943 8.0053 5.13869 8.35819C4.88795 8.71107 4.75403 9.12645 4.75397 9.55146C4.74947 10.1148 4.9819 10.6568 5.40019 11.0584C5.81848 11.46 6.38842 11.6882 6.98477 11.693Z" fill="#005E4E"/>
</g>
<defs>
<clipPath id="clip0_13092_61990">
<rect width="144.857" height="26" fill="white"/>
</clipPath>
</defs>
</svg>
